<?xml version="1.0" standalone="no"?>
<!DOCTYPE svg PUBLIC "-//W3C//DTD SVG 20010904//EN"
 "http://www.w3.org/TR/2001/REC-SVG-20010904/DTD/svg10.dtd">
<svg version="1.0" xmlns="http://www.w3.org/2000/svg"
 width="474.000000pt" height="474.000000pt" viewBox="0 0 474.000000 474.000000"
 preserveAspectRatio="xMidYMid meet">
<metadata>
Created by potrace 1.11, written by Peter Selinger 2001-2013
</metadata>
<g transform="translate(0.000000,474.000000) scale(0.100000,-0.100000)"
fill="#000000" stroke="none">
<path d="M150 4171 c0 -4 -19 -6 -42 -5 l-42 2 23 -19 c13 -11 20 -19 15 -19
-4 0 13 -19 37 -42 24 -23 43 -46 42 -50 -2 -4 8 -10 22 -14 13 -3 24 -9 23
-13 -2 -17 3 -34 8 -28 8 8 54 -34 54 -51 0 -9 6 -12 16 -8 8 3 12 2 9 -4 -3
-6 -1 -10 4 -10 6 0 11 -7 11 -16 0 -8 5 -12 10 -9 6 3 10 1 10 -5 0 -6 5 -8
12 -4 7 5 9 2 5 -9 -4 -10 0 -18 12 -22 21 -6 71 -60 71 -76 0 -6 7 -8 16 -5
8 3 12 2 9 -4 -3 -6 -1 -10 4 -10 6 0 11 -6 11 -14 0 -8 9 -18 20 -21 11 -4
18 -11 15 -16 -4 -5 1 -9 9 -9 9 0 16 -7 16 -16 0 -8 5 -12 10 -9 5 3 10 -1
10 -10 0 -11 5 -15 15 -11 8 3 14 0 12 -7 -1 -7 4 -11 11 -9 8 1 11 -2 8 -7
-7 -10 31 -51 46 -51 4 0 8 -9 8 -20 0 -13 7 -20 19 -20 11 0 23 -5 27 -12 5
-7 3 -8 -7 -3 -8 5 -1 -4 14 -19 16 -14 33 -23 39 -20 7 4 8 2 4 -5 -4 -6 0
-14 9 -17 13 -6 14 -8 3 -15 -10 -7 -10 -9 2 -9 8 0 26 -10 40 -21 14 -11 18
-17 10 -13 -8 4 1 -8 21 -27 20 -19 39 -34 43 -34 4 0 14 -13 22 -28 8 -15 19
-25 24 -22 6 4 10 -1 10 -9 0 -8 9 -17 20 -21 11 -3 19 -9 19 -13 -3 -19 2
-33 9 -28 5 3 19 -6 30 -19 12 -14 28 -25 34 -25 9 0 8 -3 -2 -10 -12 -8 -12
-10 -1 -10 7 0 24 -11 36 -24 13 -14 25 -22 28 -20 3 3 8 -4 12 -15 3 -12 11
-21 16 -21 6 0 7 -4 4 -10 -3 -5 0 -10 7 -10 16 0 68 -57 68 -74 0 -6 5 -4 10
4 8 13 10 13 10 -2 0 -10 11 -25 25 -34 14 -9 22 -20 19 -25 -3 -5 0 -9 5 -9
14 0 51 -37 51 -50 0 -6 3 -9 8 -9 27 5 34 -1 21 -18 -7 -10 -10 -15 -5 -11
12 10 48 -11 41 -23 -4 -5 -2 -9 3 -9 15 0 52 -36 52 -50 0 -7 3 -11 6 -7 8 7
34 -17 34 -32 0 -6 7 -11 16 -11 8 0 12 -4 9 -10 -3 -5 -1 -10 4 -10 18 0 48
-35 43 -50 -3 -7 0 -10 6 -7 12 8 62 -30 62 -48 0 -7 8 -19 18 -26 16 -13 16
-13 2 6 -14 19 -14 19 3 6 9 -7 17 -17 17 -22 0 -5 15 -23 33 -40 17 -17 31
-35 30 -40 -2 -4 4 -6 12 -3 13 6 20 -6 16 -29 0 -4 2 -6 7 -5 4 2 18 -7 32
-20 20 -19 22 -24 10 -32 -8 -5 -18 -6 -22 -4 -5 3 -8 2 -7 -3 4 -21 -2 -34
-13 -27 -8 5 -9 2 -4 -12 4 -10 4 -15 0 -11 -9 9 -35 -13 -28 -24 3 -5 -1 -6
-9 -4 -7 3 -19 -5 -27 -19 -7 -14 -17 -23 -21 -21 -4 3 -10 -4 -14 -15 -4 -11
-9 -19 -13 -16 -9 5 -81 -72 -74 -79 5 -5 -14 -7 -23 -2 -7 3 -40 -47 -37 -56
1 -5 -2 -6 -7 -2 -6 3 -15 -4 -21 -15 -6 -11 -15 -18 -21 -15 -5 4 -9 1 -9 -5
0 -7 -11 -21 -25 -32 -14 -11 -23 -24 -20 -29 4 -5 -1 -6 -9 -3 -9 3 -16 2
-16 -3 0 -5 -7 -18 -16 -29 -8 -10 -12 -12 -8 -4 4 8 -8 -1 -27 -20 -19 -19
-32 -39 -30 -44 2 -5 -3 -7 -12 -3 -10 3 -17 2 -17 -4 0 -13 -158 -169 -171
-169 -8 0 -13 -14 -10 -32 0 -4 -7 -4 -16 -1 -11 4 -14 3 -9 -5 4 -7 1 -12 -9
-12 -11 0 -15 -5 -12 -14 4 -11 1 -13 -11 -9 -9 3 -14 3 -10 -2 4 -4 -6 -18
-22 -30 -16 -12 -28 -24 -26 -26 2 -2 -2 -10 -10 -17 -8 -7 -14 -10 -14 -7 0
3 -8 -3 -18 -12 -11 -10 -17 -22 -14 -27 3 -5 -2 -7 -11 -3 -10 3 -17 2 -17
-4 0 -13 -67 -79 -81 -79 -6 0 -9 -7 -5 -15 3 -9 0 -15 -9 -15 -8 0 -15 -4
-15 -10 0 -5 -7 -10 -16 -10 -8 0 -12 -5 -9 -10 3 -6 -4 -14 -17 -19 -13 -6
-19 -10 -15 -10 4 -1 2 -7 -5 -15 -7 -8 -16 -12 -20 -9 -5 2 -8 -3 -8 -11 0
-9 -3 -16 -7 -16 -13 0 -122 -108 -116 -114 4 -3 -1 -6 -9 -6 -9 0 -22 -8 -29
-17 -12 -15 -12 -16 1 -8 8 4 12 5 8 0 -4 -4 -18 -13 -30 -20 -13 -6 -22 -17
-20 -23 1 -7 -1 -11 -6 -10 -11 4 -121 -110 -113 -117 3 -4 1 -6 -4 -5 -21 5
-36 0 -30 -9 3 -5 -4 -12 -15 -16 -11 -4 -18 -10 -15 -15 3 -5 -4 -11 -15 -15
-11 -3 -20 -13 -20 -21 0 -8 -4 -13 -9 -9 -6 3 -15 -4 -21 -15 -6 -11 -15 -18
-21 -15 -5 4 -9 3 -8 -2 4 -23 -2 -32 -18 -26 -10 3 -15 3 -11 -1 3 -4 -21
-35 -55 -69 -34 -34 -61 -65 -60 -69 2 -5 0 -7 -5 -7 -19 3 -33 -2 -27 -11 3
-5 1 -10 -5 -10 -6 0 -8 -4 -5 -10 3 -6 -1 -7 -9 -4 -10 4 -16 1 -16 -9 0 -9
-7 -17 -17 -19 -14 -3 -14 -5 2 -18 17 -13 18 -13 10 0 -8 13 -7 13 8 1 13
-10 17 -10 17 -1 0 10 3 10 14 1 10 -9 16 -9 21 -1 5 8 11 8 21 -1 11 -9 14
-9 14 0 0 7 5 9 13 4 17 -11 60 -11 74 0 9 6 13 5 13 -4 0 -9 3 -10 8 -4 11
16 46 19 36 3 -6 -10 -4 -10 9 1 14 11 17 11 17 0 0 -9 3 -10 8 -4 10 15 84
17 75 2 -4 -7 1 -6 10 2 10 8 20 11 23 8 3 -3 16 -2 29 3 13 5 26 6 29 3 8 -8
85 -8 93 0 3 4 14 2 24 -4 14 -7 19 -6 19 3 0 9 3 9 10 -2 5 -8 10 -10 10 -5
0 11 72 11 91 0 8 -5 10 -4 5 3 -10 16 7 15 23 0 11 -11 12 -10 7 0 -6 9 0 11
20 8 15 -3 33 -1 40 5 8 7 15 6 20 -2 5 -8 3 -9 -6 -4 -9 5 -11 4 -6 -4 6 -9
11 -9 22 0 8 6 14 8 14 4 0 -4 8 -1 17 6 11 10 14 10 9 2 -8 -14 6 -18 18 -6
8 9 46 12 46 3 0 -8 55 -4 71 5 8 6 10 4 4 -4 -6 -10 -3 -11 14 -2 16 9 21 9
21 -1 0 -9 3 -9 10 2 8 12 10 12 10 1 0 -11 3 -11 15 -1 11 9 15 9 15 1 0 -9
5 -9 20 -1 14 8 20 8 20 0 0 -7 6 -8 19 0 25 13 34 13 25 -1 -5 -8 -1 -8 13 0
14 7 24 7 33 -2 9 -8 11 -8 7 -1 -9 15 20 27 29 12 5 -7 2 -8 -6 -3 -9 5 -11
4 -6 -4 6 -9 11 -9 22 0 7 6 20 9 28 6 7 -3 19 0 26 6 9 9 11 9 7 1 -4 -7 0
-14 8 -17 10 -4 12 -1 8 10 -4 10 -2 14 5 10 20 -13 91 -15 96 -4 3 7 5 6 5
-2 1 -11 5 -10 17 5 8 10 13 13 9 6 -3 -6 -2 -12 4 -12 5 0 17 -3 27 -7 12 -4
15 -3 10 5 -4 7 -1 12 9 12 9 0 13 5 10 10 -6 9 7 14 27 11 4 0 4 7 1 16 -4
10 -2 14 5 9 6 -3 13 3 17 14 4 11 11 17 17 14 8 -5 9 -1 4 11 -6 16 -4 16 11
4 10 -9 14 -9 10 -2 -5 7 2 22 15 35 13 13 22 26 21 30 -2 5 3 8 11 8 8 0 17
7 20 16 3 9 11 12 18 8 7 -4 10 -4 6 1 -10 11 11 47 23 40 5 -4 9 1 9 10 0 9
5 13 10 10 6 -3 10 -2 10 3 0 14 40 57 53 57 7 0 11 8 9 18 -2 12 2 15 15 10
10 -3 15 -3 11 1 -4 5 -1 14 5 22 40 47 69 74 78 74 5 0 8 3 6 8 -6 9 19 33
27 25 3 -4 6 -1 6 6 0 17 26 42 34 33 4 -3 4 2 0 12 -5 13 -4 17 4 12 6 -3 17
3 25 14 7 11 17 17 21 12 4 -4 6 0 4 8 -2 9 3 14 11 12 12 -3 12 -1 1 13 -7 9
-9 15 -4 14 21 -4 34 2 31 14 -1 6 4 11 11 10 11 -3 16 9 13 29 0 5 2 7 7 7
19 -3 33 2 27 11 -3 6 -1 10 5 10 6 0 8 5 5 10 -3 6 0 10 8 10 8 0 18 7 21 16
3 8 11 12 16 9 6 -4 10 -3 9 2 -3 20 2 33 14 30 6 -1 11 6 11 15 -1 10 2 15 7
12 5 -3 9 0 9 6 0 6 5 8 10 5 6 -3 10 -2 10 3 0 15 37 52 44 44 4 -4 6 0 4 8
-2 8 3 14 9 13 7 -2 12 3 10 10 -1 6 3 11 10 10 7 -2 10 4 6 13 -3 9 0 14 7
12 7 -2 24 13 37 32 13 19 27 35 31 35 4 0 6 5 6 12 -1 7 1 11 5 10 9 -3 101
90 96 97 -3 3 -2 4 2 1 3 -3 13 1 21 8 13 10 14 9 7 -2 -6 -11 -4 -13 8 -8 10
4 23 -3 37 -21 12 -15 19 -21 15 -14 -3 6 -1 12 4 12 6 0 11 -7 11 -16 0 -8 4
-12 10 -9 6 3 10 1 10 -5 0 -6 5 -8 10 -5 5 3 10 1 10 -5 0 -7 7 -9 16 -6 8 3
12 2 9 -3 -7 -12 35 -42 47 -35 4 3 8 0 8 -6 0 -6 5 -8 10 -5 5 3 10 -1 10 -9
0 -15 17 -21 49 -17 7 2 10 -2 7 -8 -4 -6 13 -20 39 -32 25 -12 45 -25 45 -30
0 -5 9 -9 19 -9 10 0 27 -8 38 -17 10 -10 12 -13 3 -8 -13 9 -13 8 -2 -7 8 -9
20 -14 28 -11 8 3 14 0 14 -6 0 -6 9 -11 21 -11 11 0 17 -4 14 -10 -3 -5 3
-10 15 -10 13 0 19 -4 14 -12 -5 -8 0 -9 14 -6 12 4 20 3 17 -1 -2 -4 10 -18
27 -31 17 -12 28 -16 24 -9 -4 8 0 5 8 -5 9 -11 16 -16 16 -10 0 5 3 5 8 -1 4
-5 16 -17 26 -25 18 -13 19 -13 12 0 -4 9 -1 8 7 -2 8 -10 18 -18 22 -18 4 0
14 -8 22 -17 8 -10 12 -12 8 -6 -4 9 -1 11 9 7 9 -3 13 -10 10 -15 -5 -8 9
-13 29 -10 4 0 7 -4 7 -9 0 -6 6 -10 14 -10 7 0 19 -7 26 -15 7 -9 19 -14 27
-11 8 3 11 2 8 -3 -7 -12 35 -42 47 -35 4 3 8 0 8 -6 0 -6 4 -9 9 -6 5 3 11
-1 15 -9 3 -8 13 -15 21 -15 9 0 13 -4 10 -10 -3 -6 1 -7 9 -4 9 3 16 1 16 -6
0 -6 4 -9 8 -6 5 3 15 -4 22 -15 8 -10 23 -19 33 -19 10 0 15 -5 12 -10 -4 -6
-3 -10 2 -9 25 4 42 -3 48 -22 6 -17 9 -18 16 -8 6 11 9 10 15 -4 4 -10 13
-16 20 -13 8 3 14 1 14 -4 0 -6 7 -10 15 -10 8 0 15 -6 15 -12 0 -9 3 -10 8
-2 9 14 45 14 54 0 5 -7 8 -7 8 2 0 9 7 11 21 7 15 -5 19 -4 14 5 -4 7 5 4 21
-6 25 -16 27 -16 16 -2 -12 15 -11 16 15 9 15 -4 39 -6 52 -4 14 2 28 -2 33
-9 6 -10 8 -10 8 -1 0 14 107 12 131 -2 12 -8 12 -6 1 8 -12 15 -11 15 20 7
41 -12 41 -12 32 2 -6 10 -5 10 8 1 8 -7 18 -10 22 -6 4 4 11 1 16 -7 6 -9 10
-10 10 -3 0 14 42 13 52 -2 5 -6 8 -5 8 3 0 9 7 11 21 7 15 -5 19 -4 14 5 -4
7 5 4 21 -6 25 -16 27 -16 16 -2 -12 15 -11 16 15 9 15 -4 39 -6 52 -4 14 2
28 -2 33 -9 6 -10 8 -10 8 -1 0 14 107 12 131 -2 12 -8 12 -6 1 8 -12 14 -11
15 15 8 15 -4 34 -6 41 -4 16 6 16 99 0 109 -7 5 -9 2 -4 -7 4 -8 0 -5 -8 5
-9 11 -16 24 -16 29 0 5 -7 6 -16 3 -8 -3 -12 -2 -9 4 3 6 -1 13 -9 16 -9 3
-16 13 -16 22 0 8 -3 12 -6 9 -8 -7 -74 56 -74 71 0 5 -9 12 -21 15 -12 3 -18
10 -15 15 3 6 -6 13 -19 16 -14 4 -24 10 -21 15 6 9 -30 42 -38 34 -3 -4 -6 1
-6 10 0 9 -7 17 -16 17 -10 0 -14 5 -10 16 3 8 2 13 -3 10 -4 -3 -17 2 -27 10
-10 9 -13 12 -5 8 9 -5 12 -3 7 4 -4 7 -14 12 -22 12 -8 0 -12 5 -9 10 3 6 2
10 -4 10 -14 0 -60 47 -53 54 3 3 -5 6 -18 6 -13 0 -21 3 -17 6 7 8 -25 44
-34 38 -4 -2 -10 5 -14 16 -3 11 -14 20 -23 20 -15 0 -15 2 -2 10 13 8 12 10
-3 10 -10 0 -20 7 -23 15 -3 8 -14 17 -25 20 -10 4 -19 13 -19 21 0 8 -7 17
-15 20 -8 4 -12 11 -8 17 3 5 1 7 -4 4 -12 -8 -56 27 -46 37 3 3 -1 6 -11 6
-9 0 -14 5 -11 10 3 6 1 10 -6 10 -16 0 -105 92 -101 105 2 5 0 7 -3 3 -4 -4
-20 6 -35 22 -15 16 -30 26 -34 23 -3 -3 -6 -1 -6 6 0 15 -19 35 -42 44 -10 3
-18 13 -18 21 0 8 -5 18 -12 22 -7 5 -8 3 -3 -7 5 -8 -4 -1 -19 14 -14 16 -24
33 -20 38 3 5 2 9 -3 8 -20 -3 -34 2 -28 11 3 6 -1 10 -10 10 -8 0 -18 7 -21
15 -4 8 -11 12 -17 8 -5 -3 -7 -2 -4 4 7 11 -28 45 -37 36 -3 -4 -6 0 -6 8 0
16 -34 49 -50 49 -6 0 -10 7 -10 16 0 8 -4 12 -10 9 -6 -3 -10 -2 -10 3 0 16
-60 73 -70 67 -6 -3 -7 0 -4 8 3 9 -3 17 -16 20 -12 3 -19 10 -16 15 3 5 -4
12 -15 15 -12 3 -18 10 -14 16 3 6 0 11 -7 11 -7 0 -28 18 -47 40 -19 22 -41
40 -50 40 -8 0 -12 3 -8 6 6 7 -24 45 -32 40 -3 -2 -12 2 -19 10 -7 8 -10 14
-7 14 4 0 0 7 -9 15 -8 8 -19 15 -25 15 -10 0 -15 13 -13 31 1 4 -6 6 -16 5
-9 0 -16 5 -14 12 1 6 -3 12 -9 12 -18 0 -49 41 -42 54 4 6 0 5 -9 -2 -14 -11
-17 -10 -23 7 -3 12 -13 21 -21 21 -8 0 -13 3 -11 8 5 9 -50 62 -57 54 -3 -3
-6 2 -6 11 0 8 -9 18 -19 22 -11 3 -25 13 -33 23 -12 16 -11 16 7 2 19 -14 19
-14 6 3 -7 9 -20 17 -27 17 -8 0 -14 7 -14 16 0 11 -5 14 -16 10 -11 -4 -15
-2 -11 8 4 9 -2 17 -14 21 -10 4 -17 11 -14 16 4 5 -1 9 -9 9 -9 0 -16 8 -16
17 0 9 -3 14 -6 10 -3 -3 -32 21 -64 53 -32 32 -61 56 -64 53 -3 -4 -6 1 -6
10 0 8 -10 19 -21 22 -17 6 -19 9 -8 17 10 7 8 8 -9 5 -12 -3 -20 -2 -17 3 5
8 -28 50 -39 50 -3 0 -20 15 -37 33 -17 17 -35 31 -40 29 -5 -1 -8 1 -8 5 3
18 -2 36 -7 30 -4 -4 -24 11 -45 33 -22 22 -44 40 -50 40 -5 0 -8 4 -5 9 3 5
-1 12 -10 15 -8 3 -12 11 -8 17 4 8 3 9 -4 5 -7 -4 -12 -2 -12 4 0 6 -4 8 -10
5 -9 -6 -14 8 -11 28 0 4 -8 7 -19 7 -11 0 -27 12 -37 28 -21 33 -34 43 -47
35 -5 -4 -7 3 -4 15 5 16 2 20 -13 17 -11 -2 -19 1 -19 7 0 12 -39 48 -52 48
-4 0 -7 4 -6 8 4 11 -60 72 -74 72 -5 0 -6 5 -3 10 3 6 -4 14 -17 19 -13 6
-19 10 -15 10 12 1 -19 31 -32 31 -10 0 -15 14 -12 33 1 5 -3 6 -7 3 -11 -7
-102 77 -102 94 0 6 -3 9 -7 7 -11 -6 -63 50 -54 58 3 4 2 6 -4 5 -19 -4 -35
0 -35 9 0 10 -77 91 -86 91 -3 0 -12 6 -20 14 -11 11 -11 16 -1 19 12 5 -19
11 -38 7 -5 -1 -7 1 -3 5 10 10 -69 88 -82 80 -5 -3 -10 -1 -10 5 0 8 -6 8
-20 0 -15 -8 -20 -8 -20 2 0 9 -3 9 -10 -2 -6 -10 -10 -11 -10 -3 0 13 -26 13
-47 0 -7 -5 -13 -4 -13 0 0 5 -9 9 -20 10 -13 1 -18 -2 -13 -10 5 -9 3 -9 -8
0 -12 10 -18 10 -27 1 -7 -7 -12 -8 -12 -2 0 5 -9 10 -20 11 -13 1 -18 -2 -14
-9 5 -7 2 -8 -5 -4 -20 13 -191 13 -191 1 0 -6 -3 -7 -8 0 -8 12 -221 14 -239
2 -6 -4 -14 -3 -17 1 -3 5 -32 9 -63 8 -32 -1 -64 2 -70 7 -8 6 -13 5 -13 -2
0 -12 -27 -10 -47 2 -7 5 -13 5 -13 0 0 -4 -38 -8 -85 -8 -50 0 -85 4 -85 10
0 6 -5 3 -10 -5 -8 -12 -11 -13 -19 -1 -6 9 -10 10 -16 2 -5 -9 -11 -9 -23 1
-12 10 -14 10 -8 1 9 -16 -6 -17 -22 -1 -9 9 -12 9 -12 -2 0 -10 -3 -11 -11
-3 -6 6 -25 7 -50 3 -25 -5 -39 -4 -39 3 0 8 -3 8 -11 0 -6 -6 -25 -7 -50 -3
-21 4 -39 4 -39 1z m685 -201 c-3 -5 1 -10 10 -10 10 0 14 5 10 13 -4 6 0 4 8
-6 11 -13 16 -15 20 -5 3 10 9 11 25 1 17 -10 24 -10 37 3 8 8 15 11 15 5 0
-6 5 -11 11 -11 5 0 7 6 4 13 -4 6 0 4 8 -6 11 -13 16 -15 20 -5 3 10 9 10 24
1 16 -9 24 -8 38 5 10 9 15 12 11 6 -8 -15 21 -27 30 -12 5 7 2 8 -6 3 -8 -5
-11 -4 -6 3 4 6 17 8 34 4 15 -4 61 -7 102 -6 41 1 80 -2 86 -7 8 -6 18 -4 28
6 9 9 16 12 16 6 0 -6 5 -11 11 -11 5 0 7 6 4 13 -4 6 1 3 9 -7 9 -11 16 -14
16 -8 0 7 7 12 16 12 9 0 12 -5 8 -12 -6 -10 -4 -10 8 0 14 11 17 10 22 -5 3
-10 22 -28 41 -41 19 -12 35 -29 35 -37 0 -8 6 -14 13 -13 6 2 11 -2 10 -9 -2
-7 4 -10 13 -6 8 3 14 2 12 -3 -4 -12 39 -54 54 -54 6 0 9 -3 5 -6 -8 -8 34
-54 45 -48 4 3 8 -2 8 -10 0 -8 9 -18 20 -21 11 -3 20 -13 20 -21 0 -8 7 -14
16 -14 8 0 12 -4 9 -10 -3 -5 1 -10 10 -10 9 0 19 -9 22 -20 3 -11 9 -17 14
-14 5 3 9 0 9 -6 0 -6 5 -8 12 -4 6 4 8 3 5 -3 -3 -5 3 -17 14 -26 10 -9 19
-13 20 -9 0 4 4 -3 9 -15 5 -13 16 -23 25 -23 8 0 14 -3 14 -7 -4 -23 3 -32
19 -26 9 3 14 3 10 -1 -6 -7 25 -46 37 -46 11 0 45 -36 45 -48 0 -7 4 -11 9
-8 12 8 33 -19 23 -29 -4 -5 -1 -5 6 -1 6 4 12 2 12 -3 0 -6 7 -11 15 -11 8 0
15 -5 15 -11 0 -14 98 -109 112 -109 6 0 8 -7 4 -15 -3 -8 -2 -14 2 -13 14 4
53 -23 47 -33 -4 -5 -1 -9 5 -9 13 0 80 -68 80 -81 0 -5 4 -8 8 -7 4 2 42 -31
85 -73 42 -42 78 -75 79 -74 2 1 12 -7 23 -18 12 -11 14 -17 5 -13 -8 4 -6 0
4 -8 11 -9 24 -16 29 -16 4 0 5 -4 2 -10 -3 -5 -1 -10 5 -10 14 0 41 -26 35
-34 -3 -3 -2 -4 2 -1 9 7 43 -25 43 -41 0 -8 6 -11 17 -7 13 5 15 3 9 -12 -4
-11 -4 -16 0 -13 6 6 15 1 49 -30 9 -8 12 -19 8 -25 -3 -7 -3 -9 2 -5 4 4 15
-1 24 -10 10 -11 12 -12 6 -2 -9 13 -8 13 8 1 9 -7 17 -19 17 -27 0 -7 5 -16
12 -20 7 -5 8 -3 3 7 -8 12 -6 12 8 0 9 -7 17 -20 17 -28 0 -8 4 -12 8 -9 5 3
16 -6 26 -20 11 -13 25 -24 32 -24 7 0 18 -13 25 -29 7 -16 17 -27 21 -25 4 3
8 0 8 -6 0 -6 5 -8 12 -4 7 4 2 -6 -10 -23 -12 -17 -18 -34 -14 -38 4 -5 2 -6
-3 -2 -6 3 -20 -5 -30 -19 -38 -47 -77 -84 -88 -84 -8 0 -7 -4 2 -9 11 -7 9
-10 -8 -16 -12 -3 -19 -10 -16 -14 2 -4 -7 -14 -21 -21 -13 -8 -22 -20 -20
-27 3 -7 0 -12 -7 -10 -7 1 -11 -4 -9 -10 1 -7 -3 -13 -8 -13 -6 0 -24 -16
-41 -35 -17 -19 -36 -32 -42 -28 -6 3 -7 1 -3 -6 5 -7 -7 -25 -28 -45 -20 -18
-36 -38 -36 -45 0 -7 -4 -9 -10 -6 -5 3 -10 -1 -10 -9 0 -9 -4 -16 -10 -16 -5
0 -10 -7 -10 -15 0 -9 -6 -12 -15 -9 -8 4 -15 1 -15 -6 0 -7 -10 -21 -22 -31
-11 -11 -18 -19 -15 -19 4 0 -2 -9 -13 -20 -11 -11 -25 -20 -32 -20 -6 0 -8
-3 -5 -7 4 -3 -9 -21 -29 -40 -20 -18 -34 -33 -30 -33 3 0 -21 -27 -53 -59
-33 -33 -57 -62 -54 -64 2 -3 -5 -8 -16 -12 -12 -3 -21 -10 -21 -15 0 -5 -18
-27 -39 -49 -21 -22 -36 -42 -33 -45 3 -3 -2 -6 -11 -6 -10 0 -16 -3 -15 -7 2
-5 -21 -33 -50 -63 -28 -30 -52 -59 -52 -63 0 -5 -4 -5 -10 -2 -5 3 -10 2 -10
-3 0 -4 -16 -26 -35 -48 -19 -21 -35 -43 -35 -47 0 -5 -4 -5 -10 -2 -5 3 -10
2 -10 -3 0 -6 -20 -31 -45 -56 -25 -26 -45 -51 -45 -57 0 -6 -4 -7 -10 -4 -5
3 -10 2 -10 -4 0 -5 -25 -34 -55 -65 -30 -31 -52 -56 -49 -56 3 0 -18 -23 -46
-50 -27 -28 -50 -56 -50 -61 0 -6 -4 -7 -10 -4 -5 3 -10 2 -10 -4 0 -5 -16
-26 -37 -46 -20 -19 -34 -35 -31 -35 3 0 -18 -23 -45 -50 -28 -28 -56 -49 -63
-46 -6 2 -17 -1 -23 -7 -8 -8 -11 -8 -11 2 0 11 -3 11 -15 1 -8 -6 -20 -8 -27
-4 -17 10 -58 12 -64 2 -3 -5 -11 -5 -17 -1 -15 9 -49 9 -65 -1 -7 -4 -12 -2
-12 6 0 8 -3 9 -8 3 -8 -12 -22 -13 -39 -2 -8 5 -13 4 -13 -3 0 -7 -6 -8 -19
0 -14 7 -22 7 -27 -1 -4 -8 -9 -7 -15 2 -6 10 -9 10 -9 2 0 -7 -9 -10 -22 -7
-47 10 -69 11 -74 2 -3 -5 -13 -3 -22 4 -13 11 -14 11 -7 -2 8 -13 7 -13 -8
-1 -9 7 -17 9 -17 4 0 -10 -77 -10 -87 0 -3 4 -12 2 -19 -4 -8 -7 -14 -7 -19
1 -4 7 -12 7 -26 0 -13 -8 -19 -7 -19 0 0 6 -5 8 -12 3 -21 -12 -38 -12 -38 0
0 7 -5 5 -10 -3 -8 -13 -10 -13 -10 -1 0 12 -3 12 -12 3 -16 -16 -31 -15 -22
1 5 8 2 8 -9 -2 -14 -11 -17 -11 -17 0 0 10 -3 10 -12 1 -9 -9 -15 -9 -27 1
-12 9 -13 9 -7 -1 4 -6 2 -12 -3 -12 -6 0 -11 5 -11 10 0 6 -5 10 -11 10 -5 0
-8 -4 -5 -8 3 -5 -4 -8 -16 -7 -11 1 -24 9 -30 18 -5 10 -6 16 -1 15 4 -2 24
14 45 34 20 20 39 34 44 30 4 -4 4 1 1 11 -4 10 -3 16 2 13 10 -7 33 18 26 27
-3 4 -2 5 1 2 10 -7 45 15 39 25 -3 5 4 11 15 15 11 3 20 13 20 21 0 8 5 13
11 12 6 -2 14 3 17 11 3 9 0 11 -8 6 -9 -5 -11 -4 -6 4 4 6 12 9 17 6 5 -4 9
-1 9 5 0 6 4 9 8 6 11 -7 42 30 34 40 -4 4 1 4 11 1 11 -4 16 -3 12 3 -3 6 -1
10 4 10 6 0 11 7 11 16 0 8 5 12 10 9 6 -3 10 -1 10 5 0 6 5 8 10 5 6 -3 10
-1 10 4 0 6 19 30 43 54 23 23 41 46 39 51 -2 5 4 6 13 3 9 -4 15 -1 15 8 0 8
12 21 28 29 15 8 27 18 27 23 0 4 3 7 8 5 4 -1 7 4 7 12 0 8 7 17 16 20 8 3
12 11 8 17 -4 8 -3 9 4 5 13 -8 82 51 82 71 0 7 4 12 9 11 5 -2 26 15 47 37
20 22 41 39 46 37 4 -1 7 4 6 10 -2 7 2 12 9 11 6 -2 14 6 18 16 3 11 13 22
21 25 8 3 12 10 9 16 -4 6 1 7 12 3 10 -3 15 -3 11 2 -11 11 20 37 34 29 8 -5
8 -1 -2 12 -8 10 -10 16 -6 12 5 -4 15 0 23 10 8 9 11 11 7 3 -5 -9 -3 -12 4
-7 7 4 12 14 12 23 0 9 6 13 15 9 8 -3 14 0 12 7 -1 7 3 11 10 10 7 -2 10 4 6
13 -4 10 2 17 16 21 11 3 18 10 14 16 -4 6 0 8 10 4 12 -5 19 1 23 18 3 14 10
23 15 20 4 -3 13 4 19 15 6 11 16 17 22 14 6 -4 8 -3 5 3 -4 6 1 19 9 29 9 10
13 13 9 7 -3 -7 -2 -13 3 -13 6 0 13 11 16 25 4 14 11 23 16 20 6 -4 13 1 16
9 3 9 10 13 15 10 5 -3 9 0 9 6 0 15 26 41 34 33 3 -4 6 -1 6 6 0 16 66 81 74
73 3 -3 6 3 6 12 0 12 5 16 14 13 10 -4 13 0 11 14 -2 11 0 17 5 14 5 -3 17 3
27 14 9 11 20 18 25 15 4 -3 5 3 1 13 -3 10 -3 15 1 11 9 -8 66 48 66 65 0 8
3 8 9 -1 6 -10 10 -8 14 8 4 14 10 19 18 14 8 -4 10 -3 5 5 -4 7 2 15 16 20
13 6 19 10 14 10 -12 1 42 51 55 51 6 0 8 4 4 9 -3 5 4 13 16 16 17 6 19 9 8
17 -10 7 -8 8 9 5 12 -3 20 -1 17 3 -3 5 -1 11 4 15 6 3 7 13 4 23 -8 20 -61
72 -74 72 -5 0 -9 7 -9 16 0 8 -4 12 -10 9 -5 -3 -10 1 -10 10 0 9 -3 14 -7
12 -5 -3 -14 1 -21 9 -7 8 -10 14 -5 14 4 0 -2 6 -12 14 -11 8 -23 12 -27 10
-4 -3 -5 2 -2 10 4 11 0 16 -10 16 -9 0 -16 4 -16 9 0 5 -9 13 -20 16 -11 4
-18 11 -15 16 4 5 -1 12 -9 15 -9 3 -14 9 -12 13 2 3 -2 12 -10 19 -8 7 -14
10 -14 6 0 -3 -7 -1 -15 6 -8 7 -12 17 -8 24 3 6 3 8 -2 4 -4 -4 -20 6 -35 22
-15 16 -31 26 -35 22 -5 -4 -5 1 -2 11 4 10 3 16 -2 13 -5 -3 -17 5 -27 19
-10 13 -21 22 -26 19 -4 -3 -8 2 -8 10 0 8 -9 21 -20 29 -11 8 -17 17 -13 21
4 4 0 4 -10 0 -12 -4 -17 -1 -17 10 0 9 -8 16 -17 16 -9 0 -14 3 -10 6 6 7
-37 54 -50 54 -4 0 -17 13 -28 29 -11 17 -21 28 -23 26 -2 -2 -15 8 -29 23
-14 15 -30 26 -35 24 -5 -1 -7 2 -3 8 3 5 1 10 -5 10 -6 0 -8 5 -5 10 3 6 -4
10 -16 10 -12 0 -20 3 -16 6 7 7 -135 149 -158 158 -9 3 -19 15 -22 26 -3 11
-9 17 -14 14 -5 -3 -9 2 -9 11 0 9 -4 13 -10 10 -5 -3 -10 -1 -10 5 0 6 -4 8
-10 5 -6 -3 -7 1 -4 9 4 11 0 16 -10 16 -9 0 -16 7 -16 16 0 10 -6 14 -14 11
-9 -4 -17 2 -21 14 -4 10 -11 19 -16 19 -6 0 -7 5 -4 10 3 6 1 10 -5 10 -16 0
-40 26 -32 34 3 4 -2 4 -13 0 -15 -6 -17 -4 -11 11 4 11 4 17 1 13 -7 -7 -61
44 -57 55 1 4 -7 7 -18 7 -11 0 -19 6 -17 13 1 6 -4 11 -10 10 -7 -2 -13 1
-13 5 0 14 -36 52 -49 52 -6 0 -15 8 -18 18 -10 26 -64 73 -76 65 -6 -4 -8 0
-4 9 4 11 -1 18 -14 21 -11 3 -23 15 -26 26 -3 11 -8 19 -12 17 -3 -2 -12 2
-19 10 -7 8 -9 14 -5 15 4 0 -2 4 -15 10 -13 5 -21 13 -18 18 3 5 -3 11 -14
14 -11 3 -20 12 -20 20 0 9 -9 19 -20 22 -11 3 -20 11 -20 16 0 6 -4 7 -10 4
-13 -8 -13 5 0 25 9 13 10 13 10 0 0 -10 3 -11 8 -4 9 13 222 16 238 3 7 -6
16 -3 24 6 14 17 25 20 15 5z m275 -2564 c0 -2 -8 -10 -17 -17 -16 -13 -17
-12 -4 4 13 16 21 21 21 13z"/>
<path d="M3368 3579 l-118 -6 -57 -53 c-32 -29 -82 -78 -110 -109 -29 -30 -53
-51 -53 -47 0 7 -21 -14 -67 -65 l-23 -25 148 -150 c81 -83 203 -208 272 -279
74 -75 134 -129 148 -131 26 -5 12 -19 542 528 129 133 244 251 256 263 12 11
26 30 32 41 24 46 11 47 -436 43 -229 -2 -470 -7 -534 -10z"/>
</g>
</svg>
